<svg xmlns="http://www.w3.org/2000/svg" viewBox="0 0 512 512" id="chemical"><path d="M461.708 432.49L320 199.677V62.035c12.389-4.418 21.333-16.147 21.333-30.035 0-17.646-14.354-32-32-32H202.667c-17.646 0-32 14.354-32 32 0 13.888 8.944 25.617 21.333 30.035v137.642L50.271 432.5a52.383 52.383 0 00-7.604 27.229c0 28.823 23.458 52.271 52.271 52.271h322.125c28.813 0 52.271-23.448 52.271-52.333a52.224 52.224 0 00-7.626-27.177zM202.667 21.333h106.667C315.208 21.333 320 26.115 320 32s-4.792 10.667-10.667 10.667H202.667C196.792 42.667 192 37.885 192 32s4.792-10.667 10.667-10.667zm9.104 186.875a10.607 10.607 0 001.563-5.542V64h85.333v138.667c0 1.958.542 3.875 1.563 5.542L329.318 256H182.68l29.091-47.792zm205.292 282.459H94.937c-17.063 0-30.937-13.875-30.937-31 0-5.667 1.562-11.24 4.5-16.094l101.193-166.24h172.609l101.177 166.229A31.054 31.054 0 01448 459.729c0 17.063-13.875 30.938-30.937 30.938z"/></svg>