<svg xmlns="http://www.w3.org/2000/svg" viewBox="0 0 512 512" id="tv"><path d="M469.333 106.667H232.702c-.852-2.388-1.898-4.676-3.264-6.766l44.357-57.951c1.195.208 2.285.716 3.539.716 11.76 0 21.333-9.573 21.333-21.333C298.667 9.573 289.094 0 277.333 0 265.573 0 256 9.573 256 21.333c0 2.461.635 4.74 1.406 6.941L212.44 87.021c-3.1-1.004-6.344-1.688-9.773-1.688-3.504 0-6.818.704-9.975 1.75l-44.949-57.896c.975-2.441 1.591-5.07 1.591-7.854C149.333 9.573 139.76 0 128 0s-21.333 9.573-21.333 21.333c0 11.76 9.573 21.333 21.333 21.333.979 0 1.818-.431 2.762-.56l45.026 57.996c-1.31 2.036-2.331 4.247-3.156 6.564H42.667C19.135 106.667 0 125.802 0 149.333V448c0 23.531 19.135 42.667 42.667 42.667v10.667a10.66 10.66 0 0010.667 10.667H64c4.042 0 7.729-2.281 9.542-5.896l7.719-15.438H430.74l7.719 15.438a10.671 10.671 0 009.542 5.896h10.667a10.66 10.66 0 0010.667-10.667v-10.667c23.53 0 42.665-19.136 42.665-42.667V149.333c0-23.531-19.135-42.666-42.667-42.666zM490.667 448c0 11.76-9.573 21.333-21.333 21.333H42.667c-11.76 0-21.333-9.573-21.333-21.333V149.333c0-11.76 9.573-21.333 21.333-21.333h426.667c11.76 0 21.333 9.573 21.333 21.333V448z"/><path d="M331.188 163.052c-23.604-6.26-65.063-13.719-128.521-13.719S97.75 156.792 74.135 163.052c-18.531 4.917-31.469 21.865-31.469 41.208v188.813c0 19.344 12.938 36.292 31.479 41.208C97.75 440.542 139.208 448 202.667 448s104.917-7.458 128.531-13.719c18.531-4.917 31.469-21.865 31.469-41.208V204.26c0-19.343-12.938-36.291-31.479-41.208zm10.145 230.021c0 9.688-6.417 18.146-15.604 20.583-22.385 5.938-61.906 13.01-123.063 13.01s-100.677-7.073-123.052-13.01C70.417 411.219 64 402.76 64 393.073V204.26c0-9.688 6.417-18.146 15.604-20.583 22.385-5.938 61.906-13.01 123.063-13.01s100.677 7.073 123.052 13.01c9.198 2.438 15.615 10.896 15.615 20.583v188.813zM426.667 170.667c-23.531 0-42.667 19.135-42.667 42.667S403.135 256 426.667 256s42.667-19.135 42.667-42.667-19.136-42.666-42.667-42.666zm0 64c-7.792 0-14.329-4.409-18.053-10.667H416a10.66 10.66 0 0010.667-10.667A10.66 10.66 0 00416 202.666h-7.387c3.724-6.258 10.262-10.667 18.053-10.667 11.76 0 21.333 9.573 21.333 21.333.001 11.762-9.572 21.335-21.332 21.335zM426.667 277.333C403.135 277.333 384 296.469 384 320s19.135 42.667 42.667 42.667 42.667-19.135 42.667-42.667-19.136-42.667-42.667-42.667zm0 64c-11.76 0-21.333-9.573-21.333-21.333 0-7.792 4.409-14.329 10.667-18.053v7.387c0 5.896 4.771 10.667 10.667 10.667s10.667-4.771 10.667-10.667v-7.387C443.591 305.671 448 312.208 448 320c0 11.76-9.573 21.333-21.333 21.333zM458.667 384h-64c-5.896 0-10.667 4.771-10.667 10.667s4.771 10.667 10.667 10.667h64c5.896 0 10.667-4.771 10.667-10.667S464.563 384 458.667 384z"/></svg>